<svg width="71" height="71" viewBox="0 0 71 71" fill="none" xmlns="http://www.w3.org/2000/svg">
<circle cx="35.6953" cy="35.9893" r="34" fill="white" stroke="#E30084" stroke-width="2"/>
<path fill-rule="evenodd" clip-rule="evenodd" d="M29.1328 23.958C29.1328 20.3336 32.0709 17.3955 35.6953 17.3955C39.3197 17.3955 42.2578 20.3336 42.2578 23.958V33.8018C42.2578 37.4261 39.3197 40.3643 35.6953 40.3643C32.0709 40.3643 29.1328 37.4261 29.1328 33.8018V23.958ZM23.1172 33.1182C23.7968 33.1182 24.3477 33.6691 24.3477 34.3486C24.3477 36.0822 25.0778 38.8199 26.885 41.1049C28.6529 43.3401 31.4524 45.1494 35.6953 45.1494C39.9382 45.1494 42.7377 43.3401 44.5056 41.1049C46.3128 38.8199 47.043 36.0822 47.043 34.3486C47.043 33.6691 47.5939 33.1182 48.2734 33.1182C48.953 33.1182 49.5039 33.6691 49.5039 34.3486C49.5039 36.6254 48.5934 39.9034 46.4358 42.6315C44.2388 45.4093 40.7493 47.6104 35.6953 47.6104C30.6414 47.6104 27.1518 45.4093 24.9548 42.6315C22.7972 39.9034 21.8867 36.6254 21.8867 34.3486C21.8867 33.6691 22.4376 33.1182 23.1172 33.1182ZM38.1562 53.2158C38.1562 51.8567 37.0545 50.7549 35.6953 50.7549C34.3362 50.7549 33.2344 51.8567 33.2344 53.2158C33.2344 54.575 34.3362 55.6768 35.6953 55.6768C37.0545 55.6768 38.1562 54.575 38.1562 53.2158Z" fill="#E30084"/>
</svg>
