<svg width="11" height="6" viewBox="0 0 11 6" fill="none" xmlns="http://www.w3.org/2000/svg">
<path d="M0.207849 0.207851C0.346417 0.0692835 0.510482 -4.37412e-07 0.700044 -4.29126e-07C0.889605 -4.2084e-07 1.05348 0.0692835 1.19168 0.207851L5.25172 4.26789L9.32562 0.193995C9.45495 0.0646649 9.61661 -3.93705e-08 9.81061 -3.08907e-08C10.0046 -2.24109e-08 10.1709 0.0692839 10.3095 0.207852C10.448 0.34642 10.5173 0.510484 10.5173 0.700045C10.5173 0.889606 10.448 1.05349 10.3095 1.19168L5.63971 5.84757C5.58429 5.90299 5.52424 5.94235 5.45957 5.96563C5.39491 5.98891 5.32563 6.00036 5.25172 5.99999C5.17782 5.99999 5.10854 5.98835 5.04387 5.96507C4.97921 5.94179 4.91916 5.90262 4.86373 5.84757L0.193993 1.17783C0.0646629 1.0485 -1.94621e-06 0.889051 -1.93792e-06 0.69949C-1.92964e-06 0.509929 0.0692816 0.34605 0.207849 0.207851Z" fill="#666666"/>
</svg>
