<svg xmlns="http://www.w3.org/2000/svg" width="80" height="80.001" viewBox="0 0 80 80.001">
  <g id="Artwork_30" data-name="Artwork 30" transform="translate(40 40.001)">
    <g id="그룹_476793" data-name="그룹 476793" transform="translate(-40 -40.001)">
      <g id="그룹_458958" data-name="그룹 458958">
        <g id="그룹_458781" data-name="그룹 458781">
          <rect id="사각형_2661" data-name="사각형 2661" width="79.891" height="79.983" transform="translate(0.109)" fill="none"/>
        </g>
        <path id="패스_842064" data-name="패스 842064" d="M63.885,33.939V51.19a6.85,6.85,0,0,1-4.369,6.592c-.419.161-3.765.151-4.218.233" fill="none" stroke="#000" stroke-linecap="round" stroke-width="2"/>
        <path id="패스_842065" data-name="패스 842065" d="M43.363,58.353H23.582a7.16,7.16,0,0,1-7.157-7.163h0V28.769A7.16,7.16,0,0,1,23.58,21.6H51.408" fill="none" stroke="#000" stroke-linecap="round" stroke-width="2"/>
        <path id="패스_842066" data-name="패스 842066" d="M43.363,58.353l11.778,9.688.159-9.854" fill="none" stroke="#000" stroke-linecap="round" stroke-linejoin="round" stroke-width="2"/>
        <rect id="사각형_339750" data-name="사각형 339750" width="79.891" height="79.983" transform="translate(0 0.019)" fill="none"/>
        <path id="패스_840980" data-name="패스 840980" d="M63.885,24.1h-2.5V21.6" fill="none" stroke="#000" stroke-linecap="round" stroke-linejoin="round" stroke-width="2"/>
      </g>
      <g id="그룹_476792" data-name="그룹 476792">
        <path id="패스_995004" data-name="패스 995004" d="M23.81,45.482H22.52V34.643l1.29-.28Zm3.449-7.866,1.01.729-2.482,3.113,2.875,3.449-1,.771-3.393-4.15Z" stroke="#000" stroke-width="0.5"/>
        <path id="패스_995005" data-name="패스 995005" d="M29.8,43.421a2.119,2.119,0,0,1,.779-1.774,3.61,3.61,0,0,1,2.264-.61h1.487v-.491q0-1.781-1.571-1.78a4.285,4.285,0,0,0-1.058.14,6.125,6.125,0,0,0-1.017.35l-.379-.911a5.272,5.272,0,0,1,1.242-.5,5.12,5.12,0,0,1,1.3-.175q2.721,0,2.72,2.9v4.908h-.953l-.154-.842a4.6,4.6,0,0,1-1.227.716,3.439,3.439,0,0,1-1.241.252A2.016,2.016,0,0,1,29.8,43.421m2.421,1.15a2.31,2.31,0,0,0,.552-.071,4.351,4.351,0,0,0,.572-.182,3.087,3.087,0,0,0,.538-.273,3.23,3.23,0,0,0,.447-.344V41.907H32.992a2.5,2.5,0,0,0-1.487.35,1.3,1.3,0,0,0-.467,1.108,1.057,1.057,0,0,0,1.186,1.206" stroke="#000" stroke-width="0.5"/>
        <path id="패스_995006" data-name="패스 995006" d="M39.152,45.482h-1.29V34.643l1.29-.28ZM42.6,37.616l1.009.729-2.481,3.113L44,44.907l-.995.771-3.393-4.15Z" stroke="#000" stroke-width="0.5"/>
        <path id="패스_995007" data-name="패스 995007" d="M45.146,43.421a2.118,2.118,0,0,1,.778-1.774,3.608,3.608,0,0,1,2.264-.61h1.487v-.491q0-1.781-1.571-1.78a4.3,4.3,0,0,0-1.059.14,6.082,6.082,0,0,0-1.016.35l-.378-.911a5.274,5.274,0,0,1,1.24-.5,5.128,5.128,0,0,1,1.3-.175q2.719,0,2.721,2.9v4.908h-.954L49.8,44.64a4.615,4.615,0,0,1-1.227.716,3.443,3.443,0,0,1-1.241.252,2.013,2.013,0,0,1-2.187-2.187m2.421,1.15a2.308,2.308,0,0,0,.551-.071,4.3,4.3,0,0,0,.572-.182,3.122,3.122,0,0,0,.538-.273,3.291,3.291,0,0,0,.447-.344V41.907H48.334a2.5,2.5,0,0,0-1.487.35,1.294,1.294,0,0,0-.467,1.108,1.058,1.058,0,0,0,1.187,1.206" stroke="#000" stroke-width="0.5"/>
        <path id="패스_995008" data-name="패스 995008" d="M56.1,37.686a3.168,3.168,0,0,1,2.51,1.037A4.366,4.366,0,0,1,59.52,41.7a4.29,4.29,0,0,1-.9,2.931,3.6,3.6,0,0,1-5.026,0,4.267,4.267,0,0,1-.912-2.931,4.347,4.347,0,0,1,.918-2.973,3.176,3.176,0,0,1,2.5-1.037m0,1.037a1.788,1.788,0,0,0-1.549.758,3.8,3.8,0,0,0-.54,2.215,3.669,3.669,0,0,0,.54,2.181,2.014,2.014,0,0,0,3.113,0A3.669,3.669,0,0,0,58.2,41.7a3.8,3.8,0,0,0-.54-2.215,1.8,1.8,0,0,0-1.564-.758" stroke="#000" stroke-width="0.5"/>
      </g>
    </g>
  </g>
</svg>
