<svg width="12" height="12" viewBox="0 0 12 12" fill="none" xmlns="http://www.w3.org/2000/svg">
<circle cx="6" cy="6" r="6" transform="rotate(90 6 6)" fill="#C4C4C4"/>
<path d="M5.416 6.984C5.37867 6.72267 5.392 6.49067 5.456 6.288C5.52533 6.08533 5.62133 5.904 5.744 5.744C5.86667 5.57867 5.992 5.424 6.12 5.28C6.248 5.136 6.35733 4.99467 6.448 4.856C6.53867 4.71733 6.584 4.57067 6.584 4.416C6.584 4.28267 6.55467 4.168 6.496 4.072C6.44267 3.97067 6.36533 3.89333 6.264 3.84C6.168 3.78667 6.048 3.76 5.904 3.76C5.728 3.76 5.568 3.80267 5.424 3.888C5.28 3.968 5.144 4.07733 5.016 4.216L4.36 3.616C4.568 3.376 4.81333 3.18133 5.096 3.032C5.384 2.88267 5.70133 2.808 6.048 2.808C6.368 2.808 6.65333 2.864 6.904 2.976C7.16 3.088 7.36 3.25867 7.504 3.488C7.648 3.712 7.72 3.99467 7.72 4.336C7.72 4.56533 7.672 4.768 7.576 4.944C7.48533 5.12 7.37067 5.28533 7.232 5.44C7.09867 5.58933 6.96533 5.73867 6.832 5.888C6.704 6.03733 6.6 6.2 6.52 6.376C6.44 6.552 6.41333 6.75467 6.44 6.984H5.416ZM5.936 9.112C5.72267 9.112 5.54667 9.03733 5.408 8.888C5.26933 8.73867 5.2 8.55733 5.2 8.344C5.2 8.12 5.26933 7.936 5.408 7.792C5.54667 7.648 5.72267 7.576 5.936 7.576C6.144 7.576 6.31733 7.648 6.456 7.792C6.59467 7.936 6.664 8.12 6.664 8.344C6.664 8.55733 6.59467 8.73867 6.456 8.888C6.31733 9.03733 6.144 9.112 5.936 9.112Z" fill="white"/>
</svg>
