<svg width="80" height="80" viewBox="0 0 80 80" fill="none" xmlns="http://www.w3.org/2000/svg">
<g clip-path="url(#clip0_3263_921)">
<path fill-rule="evenodd" clip-rule="evenodd" d="M40 0C47.9113 0 55.6448 2.34596 62.2228 6.74122C68.8008 11.1365 73.9277 17.3836 76.9552 24.6927C79.9827 32.0017 80.7748 40.0444 79.2314 47.8036C77.688 55.5629 73.8784 62.6902 68.2843 68.2843C62.6902 73.8784 55.5629 77.688 47.8036 79.2314C40.0444 80.7748 32.0017 79.9827 24.6927 76.9552C17.3836 73.9277 11.1365 68.8008 6.74122 62.2228C2.34596 55.6448 0 47.9113 0 40C0 29.3913 4.21427 19.2172 11.7157 11.7157C19.2172 4.21427 29.3913 0 40 0ZM40.407 12.216C45.8589 12.2158 51.1884 13.8323 55.7216 16.8611C60.2547 19.8898 63.788 24.1948 65.8745 29.2316C67.9609 34.2685 68.507 39.8109 67.4435 45.1581C66.38 50.5052 63.7547 55.4169 59.8998 59.272C56.0448 63.1272 51.1331 65.7526 45.786 66.8163C40.4389 67.88 34.8965 67.3341 29.8596 65.2478C24.8227 63.1615 20.5175 59.6285 17.4886 55.0954C14.4597 50.5623 12.843 45.2329 12.843 39.781C12.843 32.4705 15.747 25.4594 20.9162 20.29C26.0855 15.1205 33.0965 12.2163 40.407 12.216Z" fill="url(#paint0_linear_3263_921)"/>
</g>
<defs>
<linearGradient id="paint0_linear_3263_921" x1="0" y1="0" x2="80" y2="0" gradientUnits="userSpaceOnUse">
<stop stop-color="white"/>
<stop offset="1" stop-color="#18973C"/>
</linearGradient>
<clipPath id="clip0_3263_921">
<rect width="80" height="80" fill="white"/>
</clipPath>
</defs>
</svg>
