<svg data-name="?" xmlns="http://www.w3.org/2000/svg" width="32" height="32" viewBox="0 0 32 32">
    <g data-name="타원 180" style="stroke:#888;stroke-width:2px;fill:none">
        <circle cx="16" cy="16" r="16" style="stroke:none"/>
        <circle cx="16" cy="16" r="15" style="fill:none"/>
    </g>
    <path data-name="패스 841342" d="M6.312-17.424a7.122 7.122 0 0 1 2.232.324 4.97 4.97 0 0 1 1.668.9 3.956 3.956 0 0 1 1.056 1.38 4.207 4.207 0 0 1 .372 1.788v.24a4.138 4.138 0 0 1-.144 1.116 3.933 3.933 0 0 1-.468 1.032 7.17 7.17 0 0 1-.84 1.068q-.516.552-1.236 1.2-.624.576-1.008 1a4.154 4.154 0 0 0-.576.768 2.231 2.231 0 0 0-.252.684 4.246 4.246 0 0 0-.06.744.8.8 0 0 1-.336.7 1.288 1.288 0 0 1-.768.24 1.434 1.434 0 0 1-.8-.228.836.836 0 0 1-.352-.764 7.833 7.833 0 0 1 .072-1.1 3.26 3.26 0 0 1 .3-.972 4.647 4.647 0 0 1 .66-.972A12.418 12.418 0 0 1 6.96-9.408q.7-.6 1.14-1.056a5.813 5.813 0 0 0 .7-.84 2.676 2.676 0 0 0 .348-.72 2.7 2.7 0 0 0 .1-.744v-.168a2.186 2.186 0 0 0-.732-1.68 3.23 3.23 0 0 0-2.244-.672 4.626 4.626 0 0 0-1.872.348 6.27 6.27 0 0 0-1.464.9.931.931 0 0 1-.744.192 1.119 1.119 0 0 1-.672-.432 1.137 1.137 0 0 1-.252-.756.911.911 0 0 1 .372-.708 7.51 7.51 0 0 1 1.992-1.188 6.913 6.913 0 0 1 2.68-.492zM5.928-2.28a1.543 1.543 0 0 1 1.14.444A1.513 1.513 0 0 1 7.512-.72 1.554 1.554 0 0 1 7.068.408a1.522 1.522 0 0 1-1.14.456A1.493 1.493 0 0 1 4.812.408 1.554 1.554 0 0 1 4.368-.72a1.513 1.513 0 0 1 .444-1.116 1.513 1.513 0 0 1 1.116-.444z" transform="translate(10 24)" style="fill:#888"/>
</svg>
