<svg width="32" height="32" viewBox="0 0 32 32" fill="none" xmlns="http://www.w3.org/2000/svg">
<path d="M16 32C24.8364 32 32 24.8364 32 16C32 7.16342 24.8364 0 16 0C7.16364 0 0 7.16342 0 16C0 24.8364 7.16364 32 16 32Z" fill="#EEEEEE"/>
<path d="M16 2.90909C12.9716 2.90909 10.0364 3.95927 7.69527 5.88065C5.35418 7.80204 3.75127 10.4756 3.16072 13.4465C2.57018 16.4167 3.02764 19.5004 4.45528 22.1709C5.88291 24.8422 8.19273 26.9353 10.9905 28.0945C13.7884 29.2531 16.9018 29.4065 19.8 28.5273C22.6982 27.648 25.2022 25.7913 26.8851 23.2727C28.5673 20.7549 29.3251 17.7309 29.0276 14.7171C28.7309 11.7025 27.3985 8.88509 25.2567 6.74328C24.0415 5.52771 22.5978 4.56342 21.0095 3.90553C19.4211 3.24764 17.7193 2.90909 16 2.90909ZM16 0C19.1644 0 22.2582 0.938402 24.8894 2.69651C27.52 4.45462 29.5709 6.95346 30.7818 9.87709C31.9927 12.8007 32.3098 16.0175 31.6924 19.1215C31.0749 22.2255 29.5513 25.0764 27.3135 27.3135C25.0764 29.5513 22.2254 31.0749 19.1214 31.6924C16.0174 32.3098 12.8007 31.9927 9.87709 30.7818C6.95345 29.5709 4.45454 27.52 2.69672 24.8895C0.938176 22.2582 0 19.1644 0 16C0 11.7564 1.68582 7.68691 4.68655 4.68633C7.68655 1.68575 11.7564 0 16 0Z" fill="#C4C4C4"/>
</svg>
