<svg width="32" height="32" viewBox="0 0 32 32" fill="none" xmlns="http://www.w3.org/2000/svg">
<path d="M16 32C24.8364 32 32 24.8366 32 16C32 7.16345 24.8364 0 16 0C7.16364 0 0 7.16345 0 16C0 24.8366 7.16364 32 16 32Z" fill="white"/>
<path d="M16 2.90909C12.9716 2.90912 10.0364 3.95929 7.69527 5.88066C5.35418 7.80204 3.75127 10.4757 3.16072 13.4462C2.57018 16.4167 3.02764 19.5001 4.45528 22.1711C5.88291 24.8421 8.19273 26.9355 10.9905 28.0945C13.7884 29.2535 16.9018 29.4064 19.8 28.5272C22.6982 27.648 25.2022 25.7911 26.8851 23.2729C28.5673 20.7546 29.3251 17.7308 29.0276 14.7168C28.7309 11.7027 27.3985 8.88487 25.2567 6.74327C24.0415 5.52767 22.5978 4.56341 21.0095 3.90554C19.4211 3.24767 17.7193 2.90908 16 2.90909ZM16 0C19.1644 0 22.2582 0.938385 24.8894 2.69649C27.52 4.45459 29.5709 6.95345 30.7818 9.87709C31.9927 12.8007 32.3098 16.0177 31.6924 19.1215C31.0749 22.2252 29.5513 25.0761 27.3135 27.3137C25.0764 29.5513 22.2254 31.0752 19.1214 31.6926C16.0174 32.3099 12.8007 31.9931 9.87709 30.782C6.95345 29.5711 4.45454 27.5203 2.69672 24.8891C0.938176 22.258 0 19.1645 0 16C0 11.7565 1.68582 7.68691 4.68655 4.68629C7.68655 1.68571 11.7564 0 16 0Z" fill="#C4C4C4"/>
</svg>
